<svg viewBox="0 0 236 236" fill="none" xmlns="http://www.w3.org/2000/svg">
    <path
        d="M203.994 64.6025C195.563 47.4689 180.671 34.3861 162.594 28.2323C144.517 22.0785 124.736 23.3577 107.603 31.7885C90.4689 40.2194 77.3861 55.1113 71.2323 73.1881C65.0785 91.2649 66.3577 111.046 74.7885 128.18L108.816 111.436C104.826 103.327 104.22 93.965 107.133 85.4096C110.045 76.8542 116.237 69.8062 124.346 65.816C132.455 61.8259 141.817 61.2205 150.373 64.1329C158.928 67.0454 165.976 73.2372 169.966 81.3462L203.994 64.6025Z"
        fill="#FF0000" />
    <path
        d="M31.6759 152.01C40.0768 169.158 54.9458 182.267 73.0119 188.452C91.078 194.637 110.861 193.393 128.01 184.992C145.158 176.591 158.267 161.722 164.452 143.656C170.637 125.589 169.393 105.806 160.992 88.6579L126.935 105.342C130.911 113.458 131.5 122.821 128.573 131.371C125.645 139.922 119.441 146.959 111.325 150.935C103.209 154.911 93.8463 155.5 85.296 152.573C76.7457 149.645 69.7085 143.441 65.7325 135.325L31.6759 152.01Z"
        fill="#00A3FF" />
</svg>